<?xml version="1.0" encoding="UTF-8" standalone="no"?>
<svg
   xmlns:dc="http://purl.org/dc/elements/1.1/"
   xmlns:cc="http://creativecommons.org/ns#"
   xmlns:rdf="http://www.w3.org/1999/02/22-rdf-syntax-ns#"
   xmlns:svg="http://www.w3.org/2000/svg"
   xmlns="http://www.w3.org/2000/svg"
   viewBox="0 0 600 600"
   height="600"
   width="600"
   xml:space="preserve"
   id="svg2"
   version="1.1"><metadata
     id="metadata8"><rdf:RDF><cc:Work
         rdf:about=""><dc:format>image/svg+xml</dc:format><dc:type
           rdf:resource="http://purl.org/dc/dcmitype/StillImage" /></cc:Work></rdf:RDF></metadata><defs
     id="defs6"><clipPath
       id="clipPath18"
       clipPathUnits="userSpaceOnUse"><path
         id="path16"
         d="M 0,450 H 450 V 0 H 0 Z" /></clipPath></defs><g
     transform="matrix(1.3333333,0,0,-1.3333333,0,600)"
     id="g10"><g
       id="g12"><g
         clip-path="url(#clipPath18)"
         id="g14"><g
           transform="translate(399.0273,224)"
           id="g20"><path
             id="path22"
             style="fill:#3b61b6;fill-opacity:1;fill-rule:nonzero;stroke:none"
             d="m 0,0 c 0,-96.112 -77.915,-174.027 -174.027,-174.027 -96.113,0 -174.028,77.915 -174.028,174.027 0,96.113 77.915,174.027 174.028,174.027 C -77.915,174.027 0,96.113 0,0" /></g><g
           transform="translate(150.5718,315.5952)"
           id="g24"><path
             id="path26"
             style="fill:#ffffff;fill-opacity:1;fill-rule:nonzero;stroke:none"
             d="M 0,0 V -9.696 H 48.901 V -187.978 L 26.979,-203.19 27.401,-27.401 0,-26.558 V -37.94 l -35.411,18.97 z" /></g><g
           transform="translate(299.4277,315.5952)"
           id="g28"><path
             id="path30"
             style="fill:#ffffff;fill-opacity:1;fill-rule:nonzero;stroke:none"
             d="M 0,0 V -9.696 H -48.9 V -187.978 L -26.979,-203.19 -27.4,-27.401 0,-26.558 V -37.94 l 35.411,18.97 z" /></g></g></g></g></svg>